<?xml version="1.0" standalone="no"?>
<!DOCTYPE svg PUBLIC "-//W3C//DTD SVG 20010904//EN"
 "http://www.w3.org/TR/2001/REC-SVG-20010904/DTD/svg10.dtd">
<svg version="1.0" xmlns="http://www.w3.org/2000/svg"
 width="1080.000000pt" height="1080.000000pt" viewBox="0 0 1080.000000 1080.000000"
 preserveAspectRatio="xMidYMid meet">

<g transform="translate(0.000000,1080.000000) scale(0.100000,-0.100000)"
fill="#00003E" stroke="none">
<path d="M0 5400 l0 -5400 5400 0 5400 0 0 5400 0 5400 -5400 0 -5400 0 0
-5400z m7388 2435 c213 -52 409 -210 507 -410 56 -115 75 -185 82 -310 18
-321 -164 -617 -464 -755 -82 -37 -180 -59 -321 -69 -172 -14 -268 -56 -363
-159 -52 -56 -66 -72 -594 -667 -224 -253 -422 -476 -439 -495 -17 -19 -65
-73 -106 -120 -41 -47 -77 -87 -80 -90 -3 -3 -39 -43 -80 -90 -41 -47 -89
-100 -106 -118 l-30 -34 -70 79 c-39 43 -106 119 -150 168 -43 50 -83 95 -89
101 -5 6 -106 119 -224 252 -118 133 -218 242 -222 242 -7 0 -33 -28 -144
-155 -33 -38 -81 -91 -106 -119 -39 -42 -45 -53 -35 -67 6 -9 106 -124 223
-255 116 -131 220 -248 230 -260 17 -20 137 -155 158 -178 6 -6 44 -49 85 -96
41 -47 77 -87 80 -90 3 -3 57 -63 120 -135 63 -71 119 -133 125 -137 9 -7 57
38 130 122 34 40 177 202 185 210 3 3 39 43 80 90 41 47 77 87 80 90 3 3 23
25 44 50 22 25 72 81 111 125 40 44 183 206 319 360 389 440 377 430 531 429
142 0 158 -12 405 -294 74 -84 153 -174 176 -199 442 -495 534 -602 529 -611
-7 -11 -786 -13 -800 -2 -6 4 -63 66 -127 138 -67 74 -131 137 -148 144 -44
18 -100 0 -141 -48 -48 -55 -158 -180 -205 -232 -22 -25 -56 -63 -75 -84 -19
-22 -56 -65 -84 -96 -27 -30 -79 -89 -115 -129 -36 -41 -69 -79 -75 -85 -5 -6
-44 -49 -85 -96 -41 -47 -77 -87 -80 -90 -3 -3 -55 -61 -115 -130 -60 -69
-112 -127 -115 -130 -3 -3 -75 -84 -160 -180 -85 -96 -159 -180 -165 -186 -5
-6 -27 -30 -49 -54 l-38 -42 -22 23 c-11 13 -55 62 -96 109 -41 47 -77 87 -80
90 -11 11 -99 110 -160 180 -36 41 -85 97 -110 125 -57 63 -54 59 -126 141
-168 190 -399 450 -404 454 -3 3 -70 79 -149 170 -80 91 -170 191 -201 223
-53 53 -60 57 -104 57 -55 0 -78 -19 -206 -169 -63 -74 -93 -101 -115 -106
-55 -11 -780 -1 -780 11 0 6 173 206 385 445 212 238 567 638 789 889 222 250
432 487 466 525 34 39 82 93 106 122 24 28 49 52 56 52 6 1 46 -38 90 -86 43
-49 80 -90 83 -93 3 -3 70 -79 150 -170 79 -91 147 -167 150 -170 3 -3 39 -43
80 -90 41 -47 94 -105 116 -130 23 -25 52 -58 65 -73 l24 -28 95 108 c112 128
147 167 220 248 63 70 168 189 220 249 19 22 58 65 85 96 28 30 97 109 155
175 57 66 118 134 133 150 39 41 90 121 111 175 25 61 32 191 16 276 -8 38
-13 112 -13 164 0 381 274 699 661 770 65 12 230 4 310 -15z m-3758 -3787 l0
-108 -405 0 -405 0 0 108 0 107 405 0 405 0 0 -107z m-164 -287 c1 -52 0 -101
-3 -108 -4 -10 -56 -13 -239 -13 l-234 0 0 110 0 110 238 -2 237 -3 1 -94z"/>
</g>
</svg>
