<?xml version="1.0" standalone="no"?>
<!DOCTYPE svg PUBLIC "-//W3C//DTD SVG 20010904//EN"
 "http://www.w3.org/TR/2001/REC-SVG-20010904/DTD/svg10.dtd">
<svg version="1.0" xmlns="http://www.w3.org/2000/svg"
 width="1080.000000pt" height="1080.000000pt" viewBox="0 0 1080.000000 1080.000000"
 preserveAspectRatio="xMidYMid meet">

<g transform="translate(0.000000,1080.000000) scale(0.100000,-0.100000)"
fill="#000000" stroke="none">
<path d="M2 8133 c1 -1468 5 -2589 9 -2493 44 1083 414 2115 1070 2992 132
175 125 167 271 333 705 806 1643 1382 2698 1659 435 114 858 166 1351 166
422 0 719 -29 1114 -111 913 -187 1803 -641 2500 -1273 521 -473 923 -1006
1230 -1631 135 -273 225 -503 334 -845 104 -331 202 -918 214 -1295 2 -44 4
1100 5 2543 l2 2622 -5400 0 -5400 0 2 -2667z"/>
<path d="M7065 7845 c-199 -37 -380 -151 -497 -311 -59 -82 -92 -150 -124
-262 -25 -89 -26 -100 -19 -225 4 -73 8 -186 9 -252 1 -119 1 -121 -36 -195
-25 -52 -68 -110 -139 -190 -56 -63 -132 -149 -168 -190 -71 -80 -153 -172
-161 -180 -3 -3 -39 -43 -80 -90 -41 -47 -77 -87 -80 -90 -3 -3 -20 -23 -39
-45 -19 -22 -57 -65 -85 -96 -28 -31 -66 -73 -85 -95 -19 -21 -51 -57 -70 -79
-20 -22 -49 -56 -65 -75 l-28 -34 -32 35 c-17 19 -60 68 -96 109 -60 69 -87
100 -182 205 -20 22 -45 49 -55 61 -158 182 -386 434 -393 434 -5 0 -20 -15
-35 -32 -15 -18 -44 -51 -64 -73 -20 -22 -86 -96 -146 -165 -60 -69 -112 -127
-115 -130 -3 -3 -61 -68 -129 -145 -68 -77 -140 -158 -160 -180 -20 -22 -106
-119 -191 -215 -185 -209 -383 -433 -390 -440 -3 -3 -39 -43 -80 -90 -41 -47
-79 -90 -85 -96 -5 -6 -39 -44 -75 -85 -36 -40 -87 -99 -115 -129 -73 -81
-168 -190 -199 -227 l-27 -33 398 -2 398 -3 45 45 c25 25 79 83 120 129 81 91
110 109 165 103 45 -5 60 -19 290 -282 60 -69 146 -166 190 -215 44 -50 109
-123 145 -164 36 -41 70 -79 75 -85 26 -28 191 -214 214 -241 54 -62 178 -202
222 -250 25 -27 82 -90 125 -140 43 -49 91 -103 106 -120 14 -16 36 -41 47
-54 l21 -24 21 24 c11 13 33 38 47 54 15 17 76 86 137 155 60 69 112 127 115
130 3 3 37 41 76 85 132 150 629 710 639 721 5 6 37 42 70 79 239 273 288 324
321 335 68 23 92 8 214 -130 41 -47 89 -100 105 -117 l30 -33 399 0 c219 -1
400 1 402 3 3 2 -37 51 -88 108 -51 58 -160 181 -243 274 -82 94 -152 172
-155 175 -3 3 -55 61 -115 130 -88 100 -243 274 -300 336 -6 6 -28 22 -50 36
-127 79 -289 55 -396 -59 -24 -27 -94 -104 -154 -173 -60 -69 -112 -127 -115
-130 -5 -5 -125 -140 -181 -205 -15 -16 -125 -140 -244 -275 -120 -135 -243
-274 -275 -310 -177 -201 -253 -285 -259 -287 -11 -5 -25 10 -191 197 -90 102
-193 219 -230 260 -255 287 -479 540 -501 565 -14 17 -50 56 -79 89 l-52 58
39 41 c21 23 40 44 43 47 3 3 52 58 109 123 57 64 108 117 115 116 6 0 31 -24
56 -53 101 -117 302 -344 399 -451 20 -22 95 -107 166 -188 l130 -148 56 63
c31 35 204 230 384 433 181 204 357 402 392 441 35 40 72 81 81 92 9 10 46 52
82 92 75 84 75 84 155 176 33 38 81 91 106 119 25 27 61 68 80 90 101 118 178
186 253 221 70 33 88 37 202 45 167 12 239 30 363 90 89 44 116 63 191 137 51
51 104 116 128 157 145 246 148 537 10 785 -112 201 -324 348 -556 386 -104
17 -164 17 -257 -1z"/>
<path d="M2 2668 l-2 -2668 2603 1 c1431 1 2539 5 2462 10 -208 11 -527 53
-752 99 -261 54 -714 188 -889 263 -33 14 -99 42 -149 63 -187 77 -506 242
-700 363 -442 273 -882 642 -1205 1011 -41 47 -77 87 -80 90 -3 3 -42 50 -87
105 -385 476 -703 1049 -900 1620 -177 512 -271 1003 -292 1530 -4 99 -8
-1020 -9 -2487z"/>
<path d="M10790 5146 c0 -159 -35 -471 -81 -726 -127 -699 -400 -1381 -786
-1969 -87 -131 -190 -279 -203 -291 -3 -3 -28 -34 -55 -70 -28 -36 -57 -74
-66 -85 -10 -11 -54 -65 -100 -120 -46 -55 -173 -190 -283 -301 -539 -538
-1105 -912 -1831 -1207 -480 -196 -1120 -337 -1655 -367 -74 -4 1036 -8 2468
-8 l2602 -2 0 2620 c0 1441 -2 2620 -5 2620 -3 0 -5 -42 -5 -94z"/>
<path d="M2827 4153 c-4 -3 -7 -53 -7 -110 l0 -103 407 2 407 3 4 84 c2 46 1
94 -2 107 l-6 24 -399 0 c-219 0 -401 -3 -404 -7z"/>
<path d="M2990 3755 l0 -105 240 0 240 0 0 105 0 105 -240 0 -240 0 0 -105z"/>
</g>
</svg>
